<svg width="51" height="50" viewBox="0 0 51 50" fill="none" xmlns="http://www.w3.org/2000/svg"><path d="M25.0011 0C11.1948 0 0 11.1926 0 25C0 38.8074 11.1937 50 25.0011 50C38.8096 50 50.0022 38.8074 50.0022 25C50.0022 11.1926 38.8096 0 25.0011 0ZM25.0011 7.47529C29.5695 7.47529 33.2715 11.1783 33.2715 15.7446C33.2715 20.3119 29.5695 24.0138 25.0011 24.0138C20.4349 24.0138 16.7329 20.3119 16.7329 15.7446C16.7329 11.1783 20.4349 7.47529 25.0011 7.47529ZM24.9956 43.4636C20.4393 43.4636 16.2662 41.8043 13.0474 39.0578C12.2633 38.389 11.8109 37.4083 11.8109 36.3793C11.8109 31.7483 15.559 28.042 20.1911 28.042H29.8133C34.4465 28.042 38.1803 31.7483 38.1803 36.3793C38.1803 37.4094 37.7301 38.3879 36.9449 39.0567C33.7272 41.8043 29.553 43.4636 24.9956 43.4636Z" fill="#DADADA"/></svg>