<svg width="10" height="17" viewBox="0 0 10 17" fill="none" xmlns="http://www.w3.org/2000/svg">
<g clip-path="url(#clip0_3_25)">
<path d="M8.73592 11.0864C7.84623 11.6639 6.6221 11.893 5.81359 11.9793L6.49222 12.6631L8.9697 15.1957C9.87562 16.145 8.40147 17.6287 7.48581 16.7126C6.86563 16.0686 5.95646 15.1392 5.00833 14.17L2.53085 16.7093C1.61519 17.6221 0.141037 16.1251 1.0567 15.1923C1.68662 14.5484 2.58605 13.619 3.53418 12.6597L4.20307 11.976C3.4043 11.8897 2.16069 11.6739 1.26126 11.0831C0.202731 10.386 -0.261594 9.97775 0.147531 9.1247C0.387811 8.64008 1.04696 8.23181 1.92041 8.9355C1.92041 8.9355 3.09908 9.89477 5.00184 9.89477C6.90459 9.89477 8.08326 8.9355 8.08326 8.9355C8.95671 8.23513 9.61261 8.64008 9.85614 9.1247C10.2588 9.97775 9.79445 10.386 8.73592 11.0864ZM0.787195 4.30511C0.787195 1.92518 2.68021 0 4.99859 0C7.31697 0 9.20998 1.92518 9.20998 4.30511C9.20998 6.67507 7.31697 8.60025 4.99859 8.60025C2.68021 8.60025 0.787195 6.67507 0.787195 4.30511ZM2.93023 4.30511C2.93023 5.47017 3.85888 6.41949 4.99859 6.41949C6.1383 6.41949 7.06694 5.47017 7.06694 4.30511C7.06694 3.13008 6.1383 2.18077 4.99859 2.18077C3.85888 2.18077 2.93023 3.13008 2.93023 4.30511Z" fill="white"/>
</g>
<defs>
<clipPath id="clip0_3_25">
<rect width="10" height="17" fill="white"/>
</clipPath>
</defs>
</svg>
